<svg width="819" height="514" viewBox="0 0 819 514" fill="none" xmlns="http://www.w3.org/2000/svg">
<circle cx="111.5" cy="481.5" r="32.5" transform="rotate(90 111.5 481.5)" fill="#FE5900"/>
<circle cx="111.5" cy="352.5" r="32.5" transform="rotate(90 111.5 352.5)" fill="#0C76FE"/>
<circle cx="111.5" cy="241.5" r="32.5" transform="rotate(90 111.5 241.5)" fill="#87986C"/>
<circle cx="32.5" cy="241.5" r="32.5" transform="rotate(90 32.5 241.5)" fill="#FEB0D7"/>
<circle cx="304.5" cy="241.5" r="32.5" transform="rotate(90 304.5 241.5)" fill="#F9B429"/>
<circle cx="111.5" cy="97.5" r="32.5" transform="rotate(90 111.5 97.5)" fill="#ADC4FA"/>
<circle cx="111.5" cy="32.5" r="32.5" transform="rotate(90 111.5 32.5)" fill="#B16845"/>
<path d="M121.125 344.5V427.312H149.5V441H106.562V344.5H121.125ZM174.875 344.5V402.625C174.875 410.917 176.229 416.979 178.938 420.812C182.979 426.354 188.667 429.125 196 429.125C203.375 429.125 209.083 426.354 213.125 420.812C215.833 417.104 217.188 411.042 217.188 402.625V344.5H231.75V406.625C231.75 416.792 228.583 425.167 222.25 431.75C215.125 439.083 206.375 442.75 196 442.75C185.625 442.75 176.896 439.083 169.812 431.75C163.479 425.167 160.312 416.792 160.312 406.625V344.5H174.875ZM254.938 441V337.938L325.312 411.562V344.5H339.875V446.875L269.5 373.438V441H254.938ZM420.5 417.562H379.188L368.438 441H352.75L400.5 338.438L446.562 441H430.625L420.5 417.562ZM414.562 403.875L400.25 371.062L385.25 403.875H414.562ZM530.875 399.875L560.75 441H542.938L515.375 401.5H512.75V441H498.188V344.5H515.25C528 344.5 537.208 346.896 542.875 351.688C549.125 357.021 552.25 364.062 552.25 372.812C552.25 379.646 550.292 385.521 546.375 390.438C542.458 395.354 537.292 398.5 530.875 399.875ZM512.75 388.812H517.375C531.167 388.812 538.062 383.542 538.062 373C538.062 363.125 531.354 358.188 517.938 358.188H512.75V388.812ZM589.875 344.5V441H575.312V344.5H589.875ZM613.062 441V337.938L683.438 411.562V344.5H698V446.875L627.625 373.438V441H613.062ZM771.812 390.75H811.688V393.938C811.688 401.188 810.833 407.604 809.125 413.188C807.458 418.354 804.646 423.188 800.688 427.688C791.729 437.771 780.333 442.812 766.5 442.812C753 442.812 741.438 437.938 731.812 428.188C722.188 418.396 717.375 406.646 717.375 392.938C717.375 378.938 722.271 367.062 732.062 357.312C741.854 347.521 753.771 342.625 767.812 342.625C775.354 342.625 782.396 344.167 788.938 347.25C795.188 350.333 801.333 355.333 807.375 362.25L797 372.188C789.083 361.646 779.438 356.375 768.062 356.375C757.854 356.375 749.292 359.896 742.375 366.938C735.458 373.854 732 382.521 732 392.938C732 403.688 735.854 412.542 743.562 419.5C750.771 425.958 758.583 429.188 767 429.188C774.167 429.188 780.604 426.771 786.312 421.938C792.021 417.062 795.208 411.229 795.875 404.438H771.812V390.75Z" fill="#0D0D0D"/>
</svg>
