<svg width="892" height="514" viewBox="0 0 892 514" fill="none" xmlns="http://www.w3.org/2000/svg">
<circle cx="780.5" cy="32.5" r="32.5" transform="rotate(-90 780.5 32.5)" fill="#FE5900"/>
<circle cx="780.5" cy="161.5" r="32.5" transform="rotate(-90 780.5 161.5)" fill="#0C76FE"/>
<circle cx="780.5" cy="272.5" r="32.5" transform="rotate(-90 780.5 272.5)" fill="#87986C"/>
<circle cx="859.5" cy="272.5" r="32.5" transform="rotate(-90 859.5 272.5)" fill="#FEB0D7"/>
<circle cx="587.5" cy="272.5" r="32.5" transform="rotate(-90 587.5 272.5)" fill="#F9B429"/>
<circle cx="780.5" cy="416.5" r="32.5" transform="rotate(-90 780.5 416.5)" fill="#ADC4FA"/>
<circle cx="780.5" cy="481.5" r="32.5" transform="rotate(-90 780.5 481.5)" fill="#B16845"/>
<path d="M26.125 192.5V275.312H54.5V289H11.5625V192.5H26.125ZM79.875 192.5V250.625C79.875 258.917 81.2292 264.979 83.9375 268.812C87.9792 274.354 93.6667 277.125 101 277.125C108.375 277.125 114.083 274.354 118.125 268.812C120.833 265.104 122.188 259.042 122.188 250.625V192.5H136.75V254.625C136.75 264.792 133.583 273.167 127.25 279.75C120.125 287.083 111.375 290.75 101 290.75C90.625 290.75 81.8958 287.083 74.8125 279.75C68.4792 273.167 65.3125 264.792 65.3125 254.625V192.5H79.875ZM159.938 289V185.938L230.312 259.562V192.5H244.875V294.875L174.5 221.438V289H159.938ZM325.5 265.562H284.188L273.438 289H257.75L305.5 186.438L351.562 289H335.625L325.5 265.562ZM319.562 251.875L305.25 219.062L290.25 251.875H319.562ZM435.875 247.875L465.75 289H447.938L420.375 249.5H417.75V289H403.188V192.5H420.25C433 192.5 442.208 194.896 447.875 199.688C454.125 205.021 457.25 212.062 457.25 220.812C457.25 227.646 455.292 233.521 451.375 238.438C447.458 243.354 442.292 246.5 435.875 247.875ZM417.75 236.812H422.375C436.167 236.812 443.062 231.542 443.062 221C443.062 211.125 436.354 206.188 422.938 206.188H417.75V236.812ZM494.875 192.5V289H480.312V192.5H494.875ZM518.062 289V185.938L588.438 259.562V192.5H603V294.875L532.625 221.438V289H518.062ZM676.812 238.75H716.688V241.938C716.688 249.188 715.833 255.604 714.125 261.188C712.458 266.354 709.646 271.188 705.688 275.688C696.729 285.771 685.333 290.812 671.5 290.812C658 290.812 646.438 285.938 636.812 276.188C627.188 266.396 622.375 254.646 622.375 240.938C622.375 226.938 627.271 215.062 637.062 205.312C646.854 195.521 658.771 190.625 672.812 190.625C680.354 190.625 687.396 192.167 693.938 195.25C700.188 198.333 706.333 203.333 712.375 210.25L702 220.188C694.083 209.646 684.438 204.375 673.062 204.375C662.854 204.375 654.292 207.896 647.375 214.938C640.458 221.854 637 230.521 637 240.938C637 251.688 640.854 260.542 648.562 267.5C655.771 273.958 663.583 277.188 672 277.188C679.167 277.188 685.604 274.771 691.312 269.938C697.021 265.062 700.208 259.229 700.875 252.438H676.812V238.75Z" fill="#0D0D0D"/>
</svg>
